<mxfile host="app.diagrams.net" agent="Mozilla/5.0 (Windows NT 10.0; Win64; x64) AppleWebKit/537.36 (KHTML, like Gecko) Chrome/130.0.0.0 Safari/537.36" version="24.8.3">
  <diagram id="R2lEEEUBdFMjLlhIrx00" name="Page-1">
    <mxGraphModel dx="633" dy="250" grid="1" gridSize="10" guides="1" tooltips="1" connect="1" arrows="1" fold="1" page="1" pageScale="1" pageWidth="850" pageHeight="1100" math="0" shadow="0" extFonts="Permanent Marker^https://fonts.googleapis.com/css?family=Permanent+Marker">
      <root>
        <mxCell id="0" />
        <mxCell id="1" parent="0" />
        <mxCell id="9PhJgYfdpSsALCQQ771_-1" value="User" style="swimlane;childLayout=stackLayout;horizontal=1;startSize=190;horizontalStack=0;rounded=1;fontSize=14;fontStyle=0;strokeWidth=2;resizeParent=0;resizeLast=1;shadow=0;dashed=0;align=center;arcSize=4;whiteSpace=wrap;html=1;" parent="1" vertex="1">
          <mxGeometry x="35" y="248" width="100" height="190" as="geometry" />
        </mxCell>
        <mxCell id="9PhJgYfdpSsALCQQ771_-3" value="Topic" style="swimlane;childLayout=stackLayout;horizontal=1;startSize=50;horizontalStack=0;rounded=1;fontSize=14;fontStyle=0;strokeWidth=2;resizeParent=0;resizeLast=1;shadow=0;dashed=0;align=center;arcSize=4;whiteSpace=wrap;html=1;" parent="1" vertex="1">
          <mxGeometry x="695" y="130" width="100" height="120" as="geometry" />
        </mxCell>
        <mxCell id="9PhJgYfdpSsALCQQ771_-4" value="&lt;span id=&quot;docs-internal-guid-335b155d-7fff-7523-f10d-542a459f4298&quot;&gt;&lt;span style=&quot;font-size: 8pt; font-family: &amp;quot;Times New Roman&amp;quot;, serif; background-color: transparent; font-variant-numeric: normal; font-variant-east-asian: normal; font-variant-alternates: normal; font-variant-position: normal; text-decoration-line: underline; text-decoration-skip-ink: none; vertical-align: baseline; white-space: pre-wrap;&quot;&gt;TopicName&lt;/span&gt;&lt;span style=&quot;font-size: 8pt; font-family: &amp;quot;Times New Roman&amp;quot;, serif; background-color: transparent; font-variant-numeric: normal; font-variant-east-asian: normal; font-variant-alternates: normal; font-variant-position: normal; vertical-align: baseline; white-space: pre-wrap;&quot;&gt; &lt;/span&gt;&lt;/span&gt;&lt;div&gt;&lt;span&gt;&lt;span style=&quot;font-size: 8pt; font-family: &amp;quot;Times New Roman&amp;quot;, serif; background-color: transparent; font-variant-numeric: normal; font-variant-east-asian: normal; font-variant-alternates: normal; font-variant-position: normal; vertical-align: baseline; white-space: pre-wrap;&quot;&gt;IsPinned&lt;/span&gt;&lt;/span&gt;&lt;/div&gt;&lt;div&gt;&lt;span&gt;&lt;span style=&quot;font-size: 8pt; font-family: &amp;quot;Times New Roman&amp;quot;, serif; background-color: transparent; font-variant-numeric: normal; font-variant-east-asian: normal; font-variant-alternates: normal; font-variant-position: normal; vertical-align: baseline; white-space: pre-wrap;&quot;&gt;CreatedOn&lt;/span&gt;&lt;/span&gt;&lt;/div&gt;&lt;div&gt;&lt;span&gt;&lt;span style=&quot;font-size: 8pt; font-family: &amp;quot;Times New Roman&amp;quot;, serif; background-color: transparent; font-variant-numeric: normal; font-variant-east-asian: normal; font-variant-alternates: normal; font-variant-position: normal; vertical-align: baseline; white-space: pre-wrap;&quot;&gt;CategoryName&lt;/span&gt;&lt;/span&gt;&lt;/div&gt;" style="align=left;strokeColor=none;fillColor=none;spacingLeft=4;fontSize=12;verticalAlign=top;resizable=0;rotatable=0;part=1;html=1;" parent="9PhJgYfdpSsALCQQ771_-3" vertex="1">
          <mxGeometry y="50" width="100" height="70" as="geometry" />
        </mxCell>
        <mxCell id="9PhJgYfdpSsALCQQ771_-7" value="Category" style="swimlane;childLayout=stackLayout;horizontal=1;startSize=50;horizontalStack=0;rounded=1;fontSize=14;fontStyle=0;strokeWidth=2;resizeParent=0;resizeLast=1;shadow=0;dashed=0;align=center;arcSize=4;whiteSpace=wrap;html=1;" parent="1" vertex="1">
          <mxGeometry x="495" y="90" width="100" height="90" as="geometry" />
        </mxCell>
        <mxCell id="9PhJgYfdpSsALCQQ771_-8" value="&lt;div&gt;&lt;span id=&quot;docs-internal-guid-a9246f1b-7fff-1da8-deb1-7f265e0de8ad&quot;&gt;&lt;span style=&quot;font-size: 8pt; font-family: &amp;quot;Times New Roman&amp;quot;, serif; background-color: transparent; font-variant-numeric: normal; font-variant-east-asian: normal; font-variant-alternates: normal; font-variant-position: normal; text-decoration-line: underline; text-decoration-skip-ink: none; vertical-align: baseline; white-space: pre-wrap;&quot;&gt;CategoryName&lt;/span&gt;&lt;/span&gt;&lt;/div&gt;&lt;div&gt;&lt;span&gt;&lt;span style=&quot;font-size: 8pt; font-family: &amp;quot;Times New Roman&amp;quot;, serif; background-color: transparent; font-variant-numeric: normal; font-variant-east-asian: normal; font-variant-alternates: normal; font-variant-position: normal; vertical-align: baseline; white-space: pre-wrap;&quot;&gt;CategoryDescription&lt;/span&gt;&lt;/span&gt;&lt;/div&gt;" style="align=left;strokeColor=none;fillColor=none;spacingLeft=4;fontSize=12;verticalAlign=top;resizable=0;rotatable=0;part=1;html=1;" parent="9PhJgYfdpSsALCQQ771_-7" vertex="1">
          <mxGeometry y="50" width="100" height="40" as="geometry" />
        </mxCell>
        <mxCell id="9PhJgYfdpSsALCQQ771_-9" value="Post" style="swimlane;childLayout=stackLayout;horizontal=1;startSize=150;horizontalStack=0;rounded=1;fontSize=14;fontStyle=0;strokeWidth=2;resizeParent=0;resizeLast=1;shadow=0;dashed=0;align=center;arcSize=4;whiteSpace=wrap;html=1;" parent="1" vertex="1">
          <mxGeometry x="390" y="230" width="100" height="150" as="geometry" />
        </mxCell>
        <mxCell id="9PhJgYfdpSsALCQQ771_-32" style="edgeStyle=orthogonalEdgeStyle;rounded=0;orthogonalLoop=1;jettySize=auto;html=1;entryX=1;entryY=0.75;entryDx=0;entryDy=0;exitX=0.994;exitY=0.279;exitDx=0;exitDy=0;exitPerimeter=0;startArrow=ERzeroToMany;startFill=0;endArrow=ERmandOne;endFill=0;" parent="9PhJgYfdpSsALCQQ771_-9" edge="1">
          <mxGeometry relative="1" as="geometry">
            <Array as="points">
              <mxPoint x="140" y="78" />
              <mxPoint x="140" y="125" />
            </Array>
            <mxPoint x="99.40000000000009" y="77.90000000000009" as="sourcePoint" />
            <mxPoint x="100" y="125" as="targetPoint" />
          </mxGeometry>
        </mxCell>
        <mxCell id="9PhJgYfdpSsALCQQ771_-11" value="TopicTag" style="swimlane;childLayout=stackLayout;horizontal=1;startSize=50;horizontalStack=0;rounded=1;fontSize=14;fontStyle=0;strokeWidth=2;resizeParent=0;resizeLast=1;shadow=0;dashed=0;align=center;arcSize=4;whiteSpace=wrap;html=1;" parent="1" vertex="1">
          <mxGeometry x="355" y="128" width="100" height="90" as="geometry" />
        </mxCell>
        <mxCell id="9PhJgYfdpSsALCQQ771_-12" value="&lt;span id=&quot;docs-internal-guid-04a7103e-7fff-6b36-e854-a5276be4d943&quot;&gt;&lt;span style=&quot;font-size: 8pt; font-family: &amp;quot;Times New Roman&amp;quot;, serif; background-color: transparent; font-variant-numeric: normal; font-variant-east-asian: normal; font-variant-alternates: normal; font-variant-position: normal; text-decoration-line: underline; text-decoration-skip-ink: none; vertical-align: baseline; white-space: pre-wrap;&quot;&gt;TagName&lt;/span&gt;&lt;/span&gt;&lt;div&gt;&lt;span&gt;&lt;span style=&quot;font-size: 8pt; font-family: &amp;quot;Times New Roman&amp;quot;, serif; background-color: transparent; font-variant-numeric: normal; font-variant-east-asian: normal; font-variant-alternates: normal; font-variant-position: normal; vertical-align: baseline; white-space: pre-wrap;&quot;&gt;&lt;u&gt;TopicName&lt;/u&gt;&lt;/span&gt;&lt;/span&gt;&lt;/div&gt;" style="align=left;strokeColor=none;fillColor=none;spacingLeft=4;fontSize=12;verticalAlign=top;resizable=0;rotatable=0;part=1;html=1;" parent="9PhJgYfdpSsALCQQ771_-11" vertex="1">
          <mxGeometry y="50" width="100" height="40" as="geometry" />
        </mxCell>
        <mxCell id="9PhJgYfdpSsALCQQ771_-28" style="edgeStyle=orthogonalEdgeStyle;rounded=0;orthogonalLoop=1;jettySize=auto;html=1;entryX=1;entryY=0.25;entryDx=0;entryDy=0;startArrow=ERzeroToMany;startFill=0;endArrow=ERmandOne;endFill=0;exitX=0;exitY=0.25;exitDx=0;exitDy=0;" parent="1" target="9PhJgYfdpSsALCQQ771_-1" edge="1">
          <mxGeometry relative="1" as="geometry">
            <mxPoint x="200" y="183" as="sourcePoint" />
            <Array as="points">
              <mxPoint x="150" y="183" />
              <mxPoint x="150" y="307" />
            </Array>
          </mxGeometry>
        </mxCell>
        <mxCell id="9PhJgYfdpSsALCQQ771_-13" value="Rating" style="swimlane;childLayout=stackLayout;horizontal=1;startSize=110;horizontalStack=0;rounded=1;fontSize=14;fontStyle=0;strokeWidth=2;resizeParent=0;resizeLast=1;shadow=0;dashed=0;align=center;arcSize=4;whiteSpace=wrap;html=1;" parent="1" vertex="1">
          <mxGeometry x="200" y="118" width="100" height="110" as="geometry" />
        </mxCell>
        <mxCell id="9PhJgYfdpSsALCQQ771_-15" value="UserPostWatch" style="swimlane;childLayout=stackLayout;horizontal=1;startSize=90;horizontalStack=0;rounded=1;fontSize=14;fontStyle=0;strokeWidth=2;resizeParent=0;resizeLast=1;shadow=0;dashed=0;align=center;arcSize=4;whiteSpace=wrap;html=1;" parent="1" vertex="1">
          <mxGeometry x="210" y="260" width="100" height="90" as="geometry" />
        </mxCell>
        <mxCell id="9PhJgYfdpSsALCQQ771_-17" value="UserTopicWatch" style="swimlane;childLayout=stackLayout;horizontal=1;startSize=80;horizontalStack=0;rounded=1;fontSize=14;fontStyle=0;strokeWidth=2;resizeParent=0;resizeLast=1;shadow=0;dashed=0;align=center;arcSize=9;whiteSpace=wrap;html=1;" parent="1" vertex="1">
          <mxGeometry x="550" y="350" width="104" height="80" as="geometry" />
        </mxCell>
        <mxCell id="9PhJgYfdpSsALCQQ771_-20" value="Log" style="swimlane;childLayout=stackLayout;horizontal=1;startSize=100;horizontalStack=0;rounded=1;fontSize=14;fontStyle=0;strokeWidth=2;resizeParent=0;resizeLast=1;shadow=0;dashed=0;align=center;arcSize=4;whiteSpace=wrap;html=1;" parent="1" vertex="1">
          <mxGeometry x="695" y="360" width="100" height="100" as="geometry" />
        </mxCell>
        <mxCell id="9PhJgYfdpSsALCQQ771_-22" style="edgeStyle=orthogonalEdgeStyle;rounded=0;orthogonalLoop=1;jettySize=auto;html=1;entryX=0.996;entryY=0.421;entryDx=0;entryDy=0;entryPerimeter=0;endArrow=ERmandOne;endFill=0;startArrow=ERzeroToMany;startFill=0;exitX=0.001;exitY=0.89;exitDx=0;exitDy=0;exitPerimeter=0;" parent="1" edge="1">
          <mxGeometry relative="1" as="geometry">
            <mxPoint x="134.5999999999999" y="368.94000000000005" as="targetPoint" />
            <mxPoint x="390.0999999999999" y="369" as="sourcePoint" />
          </mxGeometry>
        </mxCell>
        <mxCell id="9PhJgYfdpSsALCQQ771_-23" style="edgeStyle=orthogonalEdgeStyle;rounded=0;orthogonalLoop=1;jettySize=auto;html=1;entryX=1.004;entryY=0.14;entryDx=0;entryDy=0;entryPerimeter=0;endArrow=ERmandOne;endFill=0;startArrow=ERzeroToMany;startFill=0;" parent="1" edge="1">
          <mxGeometry relative="1" as="geometry">
            <mxPoint x="135.39999999999986" y="329.6" as="targetPoint" />
            <mxPoint x="210" y="330" as="sourcePoint" />
          </mxGeometry>
        </mxCell>
        <mxCell id="9PhJgYfdpSsALCQQ771_-24" style="edgeStyle=orthogonalEdgeStyle;rounded=0;orthogonalLoop=1;jettySize=auto;html=1;entryX=1;entryY=0.75;entryDx=0;entryDy=0;endArrow=ERmandOne;endFill=0;startArrow=ERzeroToMany;startFill=0;exitX=0;exitY=0.5;exitDx=0;exitDy=0;" parent="1" source="9PhJgYfdpSsALCQQ771_-17" target="9PhJgYfdpSsALCQQ771_-1" edge="1">
          <mxGeometry relative="1" as="geometry">
            <mxPoint x="548.856" y="414.5999999999999" as="sourcePoint" />
            <mxPoint x="134.99999999999977" y="415.0000000000001" as="targetPoint" />
          </mxGeometry>
        </mxCell>
        <mxCell id="9PhJgYfdpSsALCQQ771_-25" style="edgeStyle=orthogonalEdgeStyle;rounded=0;orthogonalLoop=1;jettySize=auto;html=1;entryX=0.999;entryY=0.935;entryDx=0;entryDy=0;endArrow=ERmandOne;endFill=0;startArrow=ERzeroToMany;startFill=0;entryPerimeter=0;exitX=-0.004;exitY=0.613;exitDx=0;exitDy=0;exitPerimeter=0;" parent="1" edge="1">
          <mxGeometry relative="1" as="geometry">
            <mxPoint x="694.5999999999999" y="440.6500000000001" as="sourcePoint" />
            <mxPoint x="134.9000000000001" y="440.9" as="targetPoint" />
          </mxGeometry>
        </mxCell>
        <mxCell id="9PhJgYfdpSsALCQQ771_-27" style="edgeStyle=orthogonalEdgeStyle;rounded=0;orthogonalLoop=1;jettySize=auto;html=1;endArrow=ERmandOne;endFill=0;startArrow=ERzeroToMany;startFill=0;" parent="1" edge="1">
          <mxGeometry relative="1" as="geometry">
            <mxPoint x="310" y="330" as="sourcePoint" />
            <mxPoint x="390" y="330" as="targetPoint" />
          </mxGeometry>
        </mxCell>
        <mxCell id="9PhJgYfdpSsALCQQ771_-29" style="edgeStyle=orthogonalEdgeStyle;rounded=0;orthogonalLoop=1;jettySize=auto;html=1;entryX=0;entryY=0.25;entryDx=0;entryDy=0;endArrow=ERmandOne;endFill=0;startArrow=ERzeroToMany;startFill=0;exitX=1;exitY=0.25;exitDx=0;exitDy=0;" parent="1" edge="1">
          <mxGeometry relative="1" as="geometry">
            <mxPoint x="300" y="183" as="sourcePoint" />
            <Array as="points">
              <mxPoint x="340" y="183" />
              <mxPoint x="340" y="305" />
            </Array>
            <mxPoint x="390" y="305" as="targetPoint" />
          </mxGeometry>
        </mxCell>
        <mxCell id="9PhJgYfdpSsALCQQ771_-30" style="edgeStyle=orthogonalEdgeStyle;rounded=0;orthogonalLoop=1;jettySize=auto;html=1;entryX=0;entryY=0.5;entryDx=0;entryDy=0;exitX=0.998;exitY=0.085;exitDx=0;exitDy=0;exitPerimeter=0;endArrow=ERmandOne;endFill=0;startArrow=ERzeroToMany;startFill=0;" parent="1" target="9PhJgYfdpSsALCQQ771_-4" edge="1">
          <mxGeometry relative="1" as="geometry">
            <Array as="points">
              <mxPoint x="520" y="289" />
              <mxPoint x="520" y="215" />
            </Array>
            <mxPoint x="489.79999999999995" y="288.5" as="sourcePoint" />
          </mxGeometry>
        </mxCell>
        <mxCell id="9PhJgYfdpSsALCQQ771_-31" style="edgeStyle=orthogonalEdgeStyle;rounded=0;orthogonalLoop=1;jettySize=auto;html=1;entryX=0;entryY=0.75;entryDx=0;entryDy=0;endArrow=ERmandOne;endFill=0;startArrow=ERzeroToMany;startFill=0;exitX=0.991;exitY=0.609;exitDx=0;exitDy=0;exitPerimeter=0;" parent="1" target="9PhJgYfdpSsALCQQ771_-4" edge="1">
          <mxGeometry relative="1" as="geometry">
            <mxPoint x="653.0640000000001" y="414.36" as="sourcePoint" />
          </mxGeometry>
        </mxCell>
        <mxCell id="9PhJgYfdpSsALCQQ771_-33" style="edgeStyle=orthogonalEdgeStyle;rounded=0;orthogonalLoop=1;jettySize=auto;html=1;exitX=0;exitY=0.25;exitDx=0;exitDy=0;entryX=1;entryY=0.5;entryDx=0;entryDy=0;startArrow=ERmandOne;startFill=0;endArrow=ERzeroToMany;endFill=0;" parent="1" source="9PhJgYfdpSsALCQQ771_-4" target="9PhJgYfdpSsALCQQ771_-12" edge="1">
          <mxGeometry relative="1" as="geometry" />
        </mxCell>
        <mxCell id="9PhJgYfdpSsALCQQ771_-35" style="edgeStyle=orthogonalEdgeStyle;rounded=0;orthogonalLoop=1;jettySize=auto;html=1;entryX=0.011;entryY=0.071;entryDx=0;entryDy=0;entryPerimeter=0;endArrow=ERzeroToMany;endFill=0;startArrow=ERmandOne;startFill=0;" parent="1" source="9PhJgYfdpSsALCQQ771_-7" target="9PhJgYfdpSsALCQQ771_-4" edge="1">
          <mxGeometry relative="1" as="geometry" />
        </mxCell>
        <mxCell id="9PhJgYfdpSsALCQQ771_-36" style="edgeStyle=orthogonalEdgeStyle;rounded=0;orthogonalLoop=1;jettySize=auto;html=1;entryX=1;entryY=0.25;entryDx=0;entryDy=0;exitX=1;exitY=0.25;exitDx=0;exitDy=0;endArrow=ERmandOne;endFill=0;startArrow=ERzeroToMany;startFill=0;" parent="1" source="9PhJgYfdpSsALCQQ771_-20" target="9PhJgYfdpSsALCQQ771_-4" edge="1">
          <mxGeometry relative="1" as="geometry">
            <mxPoint x="845" y="247" as="targetPoint" />
            <mxPoint x="795" y="435" as="sourcePoint" />
          </mxGeometry>
        </mxCell>
      </root>
    </mxGraphModel>
  </diagram>
</mxfile>
